<!-- icon666.com - MILLIONS vector ICONS FREE --><svg id="a" viewBox="0 0 64 64" xmlns="http://www.w3.org/2000/svg"><g><path d="m45.85 7c-5.88 0-11.02 3.14-13.85 7.83-2.83-4.69-7.97-7.83-13.85-7.83-8.92 0-16.15 7.23-16.15 16.15 0 20.77 30 33.85 30 33.85s30-13.08 30-33.85c0-8.92-7.23-16.15-16.15-16.15z" fill="#dc283c"></path><path d="m50.28 7.63c2.37 4.27 3.72 9.16 3.72 14.37 0 12.83-13.28 26.76-27.09 32.41 3.03 1.69 5.09 2.59 5.09 2.59s30-13.08 30-33.85c0-7.38-4.96-13.59-11.72-15.52z" fill="#c81e32"></path><g fill="#f03c50"><path d="m8.5 25c-1.1 0-2-.9-2-2 0-6.07 4.93-11 11-11 1.1 0 2 .9 2 2s-.9 2-2 2c-3.86 0-7 3.14-7 7 0 1.1-.9 2-2 2z"></path><circle cx="10" cy="29" r="2"></circle></g></g><path d="m45.85 7c-.54 0-1.07.04-1.59.09l17.74 16.2s0-.09 0-.13c0-1.57-.24-3.08-.65-4.52l-12.41-11.33c-1-.19-2.03-.3-3.09-.3z" fill="#fff"></path><path d="m36.09 10.28 25.87 13.8c.01-.31.04-.61.04-.92 0-.88-.09-1.73-.22-2.57l-22.68-12.1c-1.07.49-2.08 1.09-3.01 1.8z" fill="#d7ebeb"></path><path d="m18.97 35.75 2.35-3.4c.15-.22.41-.36.68-.36s.53.13.68.36l2.35 3.39c.3.52.47 1.11.47 1.75 0 1.93-1.57 3.5-3.5 3.5s-3.5-1.57-3.5-3.5c0-.64.17-1.23.47-1.75z" fill="#fff"></path><path d="m42 31c2.26 0 4.1-1.79 4.1-4 0-.55-.45-1-1-1s-1 .45-1 1c0 1.1-.94 2-2.1 2s-2.1-.9-2.1-2c0-.55-.45-1-1-1s-1 .45-1 1c0 2.21 1.84 4 4.1 4z" fill="#282828"></path><path d="m22 31c2.26 0 4.1-1.79 4.1-4 0-.55-.45-1-1-1s-1 .45-1 1c0 1.1-.94 2-2.1 2s-2.1-.9-2.1-2c0-.55-.45-1-1-1s-1 .45-1 1c0 2.21 1.84 4 4.1 4z" fill="#282828"></path><path d="m33.8 12.39c-.67.75-1.28 1.57-1.8 2.44l28.73 15.67c.34-.97.6-1.96.81-2.98z" fill="#d7ebeb"></path><path d="m41.74 7.53 15.82 29.27c.65-.98 1.24-1.99 1.77-3.04l-14.45-26.73c-1.08.06-2.13.23-3.14.5z" fill="#fff"></path></svg>