<!-- icon666.com - MILLIONS vector ICONS FREE --><svg version="1.1" id="Layer_1" xmlns="http://www.w3.org/2000/svg" xmlns:xlink="http://www.w3.org/1999/xlink" x="0px" y="0px" viewBox="0 0 512 512" style="enable-background:new 0 0 512 512;" xml:space="preserve"><path style="fill:#4BCDB2;" d="M256,512c-33.563,0-63.919-28.427-85.476-80.046c-19.735-47.256-30.603-109.744-30.603-175.953 s10.868-128.697,30.603-175.953C192.081,28.427,222.437,0,256,0c33.562,0,63.918,28.427,85.475,80.047 C361.21,127.303,372.078,189.791,372.078,256s-10.868,128.697-30.603,175.953C319.919,483.572,289.562,512,256,512z M256,31.49 c-40.009,0-84.588,92.203-84.588,224.51S215.992,480.509,256,480.509S340.587,388.306,340.587,256S296.008,31.49,256,31.49z"></path><path style="fill:#328777;" d="M395.904,428.824c-12.449,0-26.056-1.399-40.698-4.232c-50.278-9.728-108.333-35.271-163.471-71.927 C136.599,316.01,90.578,272.365,62.149,229.768c-31.051-46.528-37.919-87.546-19.338-115.496 c18.581-27.949,59.059-37.493,113.981-26.865c50.278,9.728,108.333,35.271,163.471,71.927 C375.4,195.99,421.421,239.635,449.85,282.232c31.052,46.53,37.92,87.547,19.339,115.497 C455.56,418.226,430.146,428.824,395.904,428.824z M115.658,114.597c-22.77,0-39.127,5.836-46.622,17.109 c-10.932,16.444-3.894,45.816,19.308,80.582c26.168,39.212,69.079,79.752,120.827,114.153 c72.931,48.485,142.052,70.976,186.87,70.979c22.89,0.001,39.435-5.863,46.923-17.127c10.932-16.445,3.894-45.816-19.308-80.582 C397.489,260.5,354.578,219.96,302.83,185.558c-51.748-34.403-105.735-58.28-152.019-67.235 C137.904,115.828,126.106,114.597,115.658,114.597z"></path><path style="fill:#3EAC92;" d="M116.096,428.824c-34.247,0-59.655-10.596-73.284-31.097c-18.581-27.95-11.713-68.968,19.339-115.496 c28.427-42.597,74.449-86.242,129.586-122.897c40.889-27.182,83.381-48.254,123.118-61.297c10.34-3.394,20.492-6.244,30.382-8.517 c3.355-0.771,6.68-1.475,9.972-2.112c54.923-10.626,95.401-1.085,113.981,26.866c18.581,27.95,11.713,68.968-19.339,115.496 c-28.427,42.597-74.449,86.242-129.586,122.897s-113.193,62.199-163.471,71.927C142.154,427.426,128.541,428.824,116.096,428.824z M396.342,114.597c-10.449,0-22.245,1.229-35.153,3.727c-2.054,0.398-4.125,0.824-6.208,1.28 c-9.653,2.111-19.612,4.846-29.793,8.165c-37.135,12.106-77.206,31.987-116.017,57.789C157.423,219.96,114.513,260.5,88.344,299.712 c-23.202,34.766-30.239,64.137-19.308,80.581c7.487,11.262,24.039,17.127,46.923,17.128c44.818,0.001,113.932-22.489,186.87-70.979 c51.749-34.402,94.658-74.942,120.827-114.153c23.202-34.766,30.239-64.137,19.308-80.581 C435.47,120.435,419.108,114.597,396.342,114.597z"></path><g><circle style="fill:#4BCDB2;" cx="256" cy="258.889" r="40.523"></circle><path style="fill:#4BCDB2;" d="M215.473,258.884c0,0,41.585-4.022,60.379-35.331"></path><path style="fill:#4BCDB2;" d="M220.033,277.555c0,0,46.619,6.159,74.545-29.522"></path></g><path style="fill:#328777;" d="M282.375,215.336c-0.083-0.054-0.161-0.114-0.246-0.165c-0.183-0.11-0.371-0.205-0.559-0.298 c-6.916-3.824-14.858-6.008-23.305-6.008c-26.613,0-48.268,21.627-48.318,48.229c0,0.022-0.001,0.043-0.001,0.064 c0,0.009-0.001,0.018-0.001,0.026c0,7.876,1.907,15.31,5.263,21.887c0.101,0.222,0.212,0.438,0.332,0.649 c8.113,15.318,24.216,25.782,42.723,25.782c26.644,0,48.32-21.676,48.32-48.319C306.585,239.318,296.83,223.697,282.375,215.336z M227.511,268.4c-0.556-1.519-1.001-3.091-1.328-4.706c12.571-2.589,37.625-10.154,53.86-30.922 c3.561,3.181,6.425,7.123,8.33,11.573C268.199,267.365,238.43,268.749,227.511,268.4z M258.265,224.45 c2.639,0,5.204,0.322,7.664,0.915c-11.625,13.29-28.343,19.419-38.928,22.111C231.147,234.152,243.595,224.45,258.265,224.45z M258.265,289.918c-7.135,0-13.739-2.301-19.124-6.192c13.986-1.129,33.857-5.499,51.105-19.585 C287.049,278.858,273.927,289.918,258.265,289.918z"></path></svg>