<!-- icon666.com - MILLIONS vector ICONS FREE --><svg viewBox="0 0 105 91.85" xmlns="http://www.w3.org/2000/svg"><g id="Layer_2" data-name="Layer 2"><g id="Layer_2-2" fill="rgb(0,0,0)" data-name="Layer 2"><path d="m97.19 78.33h-48.46a12.86 12.86 0 0 1 -12.56-9.91l-1.28-5.36a.44.44 0 0 0 0-.1l-10.56-44.19h80.67v33.73a12.45 12.45 0 0 1 -12.43 12.43h-52.09l.52 2.33a7.87 7.87 0 0 0 7.69 6.07h48.5a2.5 2.5 0 0 1 0 5zm-57.9-18.4h53.28a7.43 7.43 0 0 0 7.43-7.43v-28.73h-69.33z"></path><path d="m27.5 23.77a2.5 2.5 0 0 1 -2.39-1.77l-3.53-11.57a7.61 7.61 0 0 0 -7.33-5.43h-11.75a2.5 2.5 0 0 1 0-5h11.75a12.61 12.61 0 0 1 12.12 9l3.52 11.57a2.5 2.5 0 0 1 -1.66 3.12 2.31 2.31 0 0 1 -.73.08z"></path><path d="m52.5 91.85a6.44 6.44 0 1 1 6.44-6.44 6.45 6.45 0 0 1 -6.44 6.44zm0-7.88a1.44 1.44 0 1 0 1.44 1.44 1.44 1.44 0 0 0 -1.44-1.41z"></path><path d="m87.93 91.85a6.44 6.44 0 1 1 6.44-6.44 6.45 6.45 0 0 1 -6.44 6.44zm0-7.88a1.44 1.44 0 1 0 1.44 1.44 1.44 1.44 0 0 0 -1.44-1.41z"></path></g></g></svg>