<!-- icon666.com - MILLIONS vector ICONS FREE --><svg version="1.1" id="Layer_1" xmlns="http://www.w3.org/2000/svg" xmlns:xlink="http://www.w3.org/1999/xlink" x="0px" y="0px" viewBox="0 0 512.001 512.001" style="enable-background:new 0 0 512.001 512.001;" xml:space="preserve"><path style="fill:#7DF5A5;" d="M26.485,324.896c-15.172,0-27.244-12.723-26.446-27.874l7.751-123.301 c0.585-9.302,8.3-16.547,17.62-16.547h9.902c4.875,0,8.828,3.953,8.828,8.828v4.93c0,7.599,4.863,14.346,12.072,16.749 l51.849,17.283c9.516,3.172,20.008,0.695,27.101-6.398l46.122-46.122c7.766-7.766,19.463-9.958,29.486-5.472 c45.657,20.434,173.159,76.683,221.784,89.649c14.649,3.906,28.327,6.193,40.063,7.502C495.03,246.626,512,265.434,512,287.988 v19.253l-52.965,35.31L35.311,324.896H26.485z"></path><path style="fill:#64DCA0;" d="M26.485,324.896h8.828l423.723,17.655l52.965-35.31v-19.254c0-0.566-0.135-1.097-0.156-1.658 c-36.738,14.708-120.836,25.477-178.604,26.061c-64.629,0.652-283.784-23.588-332.344-29.058l-0.861,13.689 C-0.759,312.173,11.312,324.896,26.485,324.896z"></path><path style="fill:#FFF082;" d="M233.65,275.153L5.653,207.716l-5.614,89.305c-0.798,15.151,11.274,27.875,26.446,27.875h8.828 l257.629,10.734l-32.349-42.005C253.781,284.782,244.352,278.317,233.65,275.153z"></path><path style="fill:#FFDC64;" d="M273.022,309.767c-91.112-6.322-234.049-22.146-272.124-26.435l-0.861,13.689 c-0.798,15.151,11.274,27.875,26.446,27.875h8.828L292.94,335.63L273.022,309.767z"></path><path style="fill:#959CB5;" d="M118.368,295.49c-4.218-7.593-11.086-13.364-19.293-16.211L3.053,249.063l-3.015,47.958 c-0.798,15.151,11.274,27.875,26.446,27.875h8.828l101.364,4.224L118.368,295.49z"></path><path style="fill:#FFF082;" d="M472.616,244.123c-11.736-1.311-25.413-3.596-40.063-7.502c-16.079-4.288-40.845-13.35-68.365-24.244 l-33.705,24.244l-16.796,29.453c-6.792,11.785-0.418,26.795,12.778,30.093l0.043,0.011c5.686,1.422,11.709,0.339,16.543-2.974 l19.902-13.636c1.475-1.012,3.187-1.553,4.975-1.545c13.697,0.056,93.018-5.156,132.027-20.192 C492.965,250.413,483.456,245.333,472.616,244.123z"></path><path style="fill:#959CB5;" d="M325.892,245.448c9.349,0,40.514-12.466,59.213-24.932l-0.006-0.017 c-61.993-23.49-149.25-62.262-179.807-75.984c-6.685-3.001-14.527-1.555-19.708,3.626l-29.62,29.62 C188.523,192.197,309.725,245.448,325.892,245.448z"></path><g><path style="fill:#64DCA0;" d="M217.105,180.069c-2.138,0-4.285-0.771-5.974-2.332c-3.595-3.302-3.819-8.884-0.526-12.474 l12.69-13.793c3.31-3.591,8.905-3.815,12.474-0.518c3.595,3.302,3.819,8.884,0.526,12.474l-12.69,13.793 C221.863,179.112,219.484,180.069,217.105,180.069z"></path><path style="fill:#64DCA0;" d="M247.88,192.819c-2.138,0-4.285-0.771-5.974-2.332c-3.595-3.302-3.819-8.884-0.526-12.474 l12.69-13.793c3.302-3.591,8.914-3.815,12.474-0.518c3.595,3.302,3.819,8.884,0.526,12.474l-12.69,13.793 C252.639,191.861,250.26,192.819,247.88,192.819z"></path><path style="fill:#64DCA0;" d="M278.656,205.568c-2.138,0-4.285-0.771-5.974-2.332c-3.595-3.302-3.819-8.884-0.526-12.474 l12.69-13.793c3.319-3.591,8.914-3.81,12.474-0.518c3.595,3.302,3.819,8.884,0.526,12.474l-12.69,13.793 C283.416,204.612,281.035,205.568,278.656,205.568z"></path><path style="fill:#64DCA0;" d="M309.424,218.323c-2.138,0-4.285-0.771-5.974-2.332c-3.595-3.302-3.819-8.884-0.526-12.474 l12.69-13.793c3.31-3.586,8.905-3.806,12.474-0.518c3.595,3.302,3.819,8.884,0.526,12.474l-12.69,13.793 C314.182,217.366,311.803,218.323,309.424,218.323z"></path></g><path style="fill:#7F8499;" d="M26.485,324.896h8.828l101.364,4.224l-18.062-33.176c-52.589-5.346-98.48-10.444-117.715-12.611 l-0.861,13.689C-0.759,312.173,11.312,324.896,26.485,324.896z"></path><path style="fill:#D5DCED;" d="M335.45,333.724c-79.448,0-132.413-8.828-211.862-8.828l-113.304-5.517v40.827 c0,4.875,3.953,8.828,8.828,8.828h289.855c86.721,0,155.693-17.749,177.857-24.185c4.748-1.379,8.698-4.65,10.91-9.073 l14.268-28.534C512.001,307.241,432.553,333.724,335.45,333.724z"></path></svg>