<!-- icon666.com - MILLIONS vector ICONS FREE --><svg id="Layer_1" enable-background="new 0 0 512 512" viewBox="0 0 512 512" xmlns="http://www.w3.org/2000/svg"><g><path d="m437.019 74.98c-48.352-48.351-112.639-74.98-181.019-74.98s-132.667 26.629-181.02 74.98c-48.351 48.353-74.98 112.64-74.98 181.02s26.628 132.667 74.98 181.02c48.353 48.351 112.64 74.98 181.02 74.98s132.668-26.629 181.02-74.98c48.351-48.353 74.98-112.64 74.98-181.02s-26.629-132.667-74.981-181.02zm-319.202 359.724c19.683-59.009 75.183-99.437 138.183-99.437s118.501 40.43 138.182 99.438c-38.232 29.63-86.18 47.295-138.182 47.295s-99.951-17.665-138.183-47.296zm300.338-21.455c-26.927-64.621-90.521-107.982-162.155-107.982-71.635 0-135.228 43.36-162.156 107.981-39.49-40.711-63.844-96.185-63.844-157.248 0-124.617 101.383-226 226-226s226 101.383 226 226c0 61.063-24.354 116.538-63.845 157.249z"></path><path d="m256 80.334c-52.567 0-95.333 42.767-95.333 95.333s42.766 95.333 95.333 95.333 95.334-42.767 95.334-95.333-42.767-95.333-95.334-95.333zm0 160.666c-36.025 0-65.333-29.309-65.333-65.333s29.308-65.333 65.333-65.333 65.334 29.309 65.334 65.333-29.309 65.333-65.334 65.333z"></path></g></svg>