<!-- icon666.com - MILLIONS vector ICONS FREE --><svg viewBox="0 0 48 48" xmlns="http://www.w3.org/2000/svg"><g id="Line"><path d="m34.39 5a11.52 11.52 0 0 0 -8.2 3.4l-2.19 2.19-2.19-2.19a11.6 11.6 0 0 0 -19.81 8.21 17 17 0 0 0 6 13l15.35 13.15a1 1 0 0 0 1.3 0l15.35-13.19a17 17 0 0 0 6-13 11.63 11.63 0 0 0 -11.61-11.57zm4.35 23.05-14.74 12.63-14.74-12.63a15.07 15.07 0 0 1 -5.26-11.44 9.61 9.61 0 0 1 16.4-6.8l2.89 2.9a1 1 0 0 0 1.42 0l2.89-2.9a9.61 9.61 0 0 1 16.4 6.8 15.07 15.07 0 0 1 -5.26 11.44z"></path></g></svg>